<svg width="156" height="34" viewBox="0 0 156 34" fill="none" xmlns="http://www.w3.org/2000/svg">
<g clip-path="url(#clip0_30_30)">
<path d="M12.6962 21.2545V26.9217C12.6962 29.7553 11.4482 30.7771 9.46474 30.7771C7.48131 30.7771 6.23443 29.7553 6.23443 26.9217V5.49734C6.23443 2.66372 7.48243 1.5862 9.46586 1.5862C11.4493 1.5862 12.6962 2.66372 12.6962 5.49734V9.74835H18.5907V5.89403C18.5907 -0.454055 15.4161 -4.08105 9.29537 -4.08105C3.17349 -4.08105 0 -0.454055 0 5.89403V26.525C0 32.8731 3.17349 36.5012 9.29537 36.5012C15.4161 36.5012 18.5907 32.8731 18.5907 26.525V21.2545H12.6962ZM36.2176 -3.62754L42.5657 36.0477H36.2745L35.1969 28.8494H27.5463L26.4687 36.0477H20.7447L27.0927 -3.62754H36.2176ZM31.2869 3.40026L28.3396 23.4652H34.3467L31.4006 3.39915H31.288L31.2869 3.40026ZM64.8403 36.0477H58.4922C58.1523 35.027 57.925 34.403 57.925 31.1727V24.9383C57.925 21.2545 56.6781 19.8939 53.8445 19.8939H51.6906V36.0477H45.4562V-3.62754H54.8652C61.3258 -3.62754 64.1026 -0.623426 64.1026 5.49846V8.61512C64.1026 12.6956 62.7989 15.3031 60.0221 16.6068C63.1399 18.023 64.1595 20.9703 64.1595 25.1088V31.2295C64.1595 33.1573 64.2174 34.5735 64.8403 36.0477ZM54.6947 2.03972H51.6906V14.2267H54.1275C56.4519 14.2267 57.8682 13.2071 57.8682 10.0325V6.12135C57.8682 3.28772 56.9055 2.03972 54.6947 2.03972ZM83.8411 -3.62754L90.1892 36.0477H83.8979L82.8215 28.8494H75.1697L74.0933 36.0477H68.3681L74.7162 -3.62754H83.8411ZM78.9104 3.40026L75.9631 23.4652H81.9713L79.024 3.39915H78.9104V3.40026ZM95.9567 -3.62754H89.6655L95.7862 36.0477H105.082L111.202 -3.62754H105.478L100.774 28.7347H100.66L95.9567 -3.62754ZM126.152 -3.62754L132.5 36.0477H126.208L125.132 28.8494H117.48L116.403 36.0477H110.679L117.027 -3.62754H126.152ZM121.221 3.40026L118.274 23.4652H124.282L121.335 3.39915H121.221V3.40026ZM149.595 36.0477H156V-3.62754H150.445V20.1201H150.332L144.04 -3.62754H136.219V36.0477H141.831V7.31029H141.943L149.595 36.0477Z" fill="#9C9C9C"/>
</g>
<defs>
<clipPath id="clip0_30_30">
<rect width="156" height="34" fill="white"/>
</clipPath>
</defs>
</svg>
