<svg width="153" height="39" viewBox="0 0 153 39" fill="none" xmlns="http://www.w3.org/2000/svg">
<path fill-rule="evenodd" clip-rule="evenodd" d="M23.1755 16.8501H25.9103C28.7368 16.8501 30.2638 20.1421 28.4228 22.2751L25.7453 25.3751C26.0352 27.2137 27.0125 28.876 28.4821 30.0301C29.9531 31.1848 31.8079 31.7468 33.6771 31.6041C35.5464 31.4614 37.2929 30.6245 38.5691 29.2601C39.8442 27.8962 40.5541 26.1045 40.5571 24.2431C40.5568 23.9193 40.6208 23.5986 40.7455 23.2994C40.8702 23.0002 41.053 22.7284 41.2836 22.4995C41.5142 22.2706 41.788 22.0892 42.0892 21.9655C42.3905 21.8419 42.7133 21.7786 43.0393 21.7791C43.6973 21.7794 44.3283 22.0389 44.7938 22.5009C45.2594 22.9628 45.5215 23.5894 45.5225 24.2431C45.5223 26.829 44.7024 29.3492 43.1792 31.4461C42.0387 33.0129 40.5438 34.2917 38.8149 35.1796C37.0859 36.0674 35.1713 36.5395 33.2251 36.5578C31.2789 36.5761 29.3556 36.1401 27.6101 35.2849C25.8646 34.4297 24.3456 33.1792 23.1755 31.6341C22.0053 33.1792 20.4864 34.4297 18.7408 35.2849C16.9953 36.1401 15.072 36.5761 13.1258 36.5578C11.1796 36.5395 9.26498 36.0674 7.53604 35.1796C5.8071 34.2917 4.3122 33.0129 3.17172 31.4461C1.64811 29.3493 0.827871 26.8291 0.827393 24.2431C0.827128 23.9192 0.891199 23.5984 1.01594 23.2992C1.14067 22.9999 1.32362 22.728 1.55431 22.4991C1.78499 22.2702 2.05887 22.0888 2.36025 21.9653C2.66163 21.8417 2.98459 21.7784 3.31062 21.7791C3.96861 21.7794 4.59962 22.0389 5.06517 22.5009C5.53072 22.9628 5.79279 23.5894 5.79385 24.2431C5.79107 26.1075 6.49798 27.9039 7.77279 29.2721C8.72464 30.2935 9.94704 31.0276 11.2997 31.3903C12.6524 31.753 14.0806 31.7295 15.4205 31.3226C16.7604 30.9156 17.9576 30.1417 18.875 29.0895C19.7923 28.0374 20.3925 26.7497 20.6067 25.3741L17.9272 22.2741C16.0871 20.1421 17.6131 16.8511 20.4436 16.8511L23.1755 16.8501Z" fill="#9C9C9C"/>
<path d="M34.7623 10.2801C35.4141 10.2806 36.0597 10.1535 36.6621 9.90614C37.2645 9.65874 37.8119 9.29587 38.2731 8.83823C38.7343 8.3806 39.1003 7.83718 39.35 7.23901C39.5998 6.64085 39.7285 5.99966 39.7287 5.35207C39.7285 4.70449 39.5998 4.0633 39.35 3.46513C39.1003 2.86697 38.7343 2.32355 38.2731 1.86592C37.8119 1.40828 37.2645 1.0454 36.6621 0.798008C36.0597 0.550613 35.4141 0.423548 34.7623 0.424074C34.1105 0.42368 33.465 0.550841 32.8628 0.798295C32.2605 1.04575 31.7132 1.40865 31.2521 1.86627C30.791 2.32389 30.4251 2.86727 30.1754 3.46537C29.9257 4.06347 29.7971 4.70457 29.7968 5.35207C29.7971 5.99958 29.9257 6.64068 30.1754 7.23878C30.4251 7.83688 30.791 8.38026 31.2521 8.83788C31.7132 9.2955 32.2605 9.6584 32.8628 9.90585C33.465 10.1533 34.1105 10.2805 34.7623 10.2801ZM11.5878 10.2801C12.2396 10.2805 12.885 10.1533 13.4873 9.90585C14.0896 9.6584 14.6369 9.2955 15.098 8.83788C15.5591 8.38026 15.9249 7.83688 16.1746 7.23878C16.4243 6.64068 16.553 5.99958 16.5533 5.35207C16.553 4.70457 16.4243 4.06347 16.1746 3.46537C15.9249 2.86727 15.5591 2.32389 15.098 1.86627C14.6369 1.40865 14.0896 1.04575 13.4873 0.798295C12.885 0.550841 12.2396 0.42368 11.5878 0.424074C10.936 0.423548 10.2904 0.550613 9.68799 0.798008C9.08558 1.0454 8.53814 1.40828 8.07694 1.86592C7.61573 2.32355 7.2498 2.86697 7.00004 3.46513C6.75029 4.0633 6.6216 4.70449 6.62134 5.35207C6.6216 5.99966 6.75029 6.64085 7.00004 7.23901C7.2498 7.83718 7.61573 8.3806 8.07694 8.83823C8.53814 9.29587 9.08558 9.65874 9.68799 9.90614C10.2904 10.1535 10.936 10.2806 11.5878 10.2801ZM79.9677 1.62807C80.7327 1.62807 81.3608 1.84507 81.852 2.27907C82.3432 2.71307 82.5889 3.28307 82.5889 3.98907V28.3241C82.5889 29.0571 82.3573 29.6401 81.8923 30.0741C81.4293 30.5081 80.8143 30.7251 80.0503 30.7251C79.2853 30.7251 78.6712 30.5081 78.2062 30.0751C77.7422 29.6401 77.5097 29.0571 77.5097 28.3251V27.3071C76.9087 28.4191 76.035 29.2871 74.8875 29.9111C73.7682 30.5351 72.4848 30.8471 71.0374 30.8471C69.3161 30.8471 67.774 30.4131 66.4091 29.5451C65.0704 28.6771 64.0195 27.4561 63.2545 25.8821C62.5167 24.2821 62.1483 22.4511 62.1483 20.3891C62.1483 18.3271 62.5167 16.5231 63.2545 14.9761C64.0195 13.4301 65.0704 12.2361 66.4091 11.3951C67.7468 10.5541 69.2899 10.1331 71.0374 10.1331C72.4848 10.1331 73.7682 10.4321 74.8885 11.0291C75.9801 11.5989 76.8778 12.4767 77.4684 13.5521V3.90707C77.4684 3.22907 77.6868 2.68607 78.1237 2.27907C78.5887 1.84507 79.2027 1.62807 79.9677 1.62807ZM72.3892 26.9001C74.0279 26.9001 75.2841 26.3441 76.1578 25.2311C77.0587 24.1191 77.5097 22.5311 77.5097 20.4701C77.5097 18.4081 77.0587 16.8341 76.1578 15.7501C75.2841 14.6371 74.042 14.0801 72.4305 14.0801C70.7917 14.0801 69.5214 14.6231 68.6206 15.7091C67.7197 16.7941 67.2687 18.3541 67.2687 20.3891C67.2687 22.4511 67.7197 24.0511 68.6206 25.1911C69.5214 26.3311 70.7777 26.9001 72.3892 26.9001ZM96.991 30.8471C94.9436 30.8471 93.1408 30.4271 91.5846 29.5861C90.0546 28.7451 88.8669 27.5381 88.0204 25.9641C87.1738 24.3901 86.75 22.5591 86.75 20.4701C86.75 18.3811 87.1728 16.5631 88.0204 15.0171C88.8669 13.4431 90.0546 12.2361 91.5836 11.3951C93.1408 10.5541 94.9436 10.1331 96.991 10.1331C99.0394 10.1331 100.828 10.5531 102.357 11.3951C103.89 12.2117 105.134 13.4759 105.921 15.0171C106.768 16.5631 107.192 18.3811 107.192 20.4701C107.192 22.5601 106.768 24.3901 105.921 25.9641C105.134 27.5052 103.89 28.7694 102.357 29.5861C100.828 30.4261 99.0384 30.8471 96.991 30.8471ZM96.9507 26.9001C98.6166 26.9001 99.8859 26.3571 100.76 25.2721C101.634 24.1871 102.071 22.5861 102.071 20.4701C102.071 18.3811 101.634 16.7941 100.76 15.7091C99.8859 14.5961 98.6297 14.0401 96.991 14.0401C95.3533 14.0401 94.082 14.5961 93.1821 15.7091C92.3084 16.7941 91.8705 18.3811 91.8705 20.4701C91.8705 22.5861 92.3074 24.1871 93.1821 25.2721C94.0558 26.3571 95.312 26.9001 96.9507 26.9001ZM128.377 10.2151C129.142 10.2151 129.756 10.4321 130.22 10.8651C130.685 11.3001 130.917 11.8831 130.917 12.6151V28.6901C130.917 31.8101 130.043 34.1701 128.296 35.7721C126.547 37.3721 123.967 38.1721 120.553 38.1721C117.577 38.1721 115.091 37.6171 113.098 36.5041C112.088 35.9071 111.582 35.1881 111.582 34.3471C111.582 33.7501 111.719 33.2761 111.992 32.9231C112.292 32.5701 112.674 32.3931 113.139 32.3931C113.385 32.3931 113.685 32.4481 114.04 32.5571C114.395 32.6921 114.764 32.8421 115.146 33.0041C116.001 33.3656 116.876 33.6781 117.768 33.9401C118.56 34.1571 119.461 34.2661 120.471 34.2661C124.049 34.2661 125.838 32.5301 125.838 29.0561V26.4521C125.237 27.5651 124.363 28.4321 123.216 29.0571C122.069 29.6541 120.758 29.9521 119.284 29.9521C117.535 29.9521 115.979 29.5451 114.613 28.7321C113.275 27.8901 112.225 26.7241 111.46 25.2321C110.695 23.7391 110.312 22.0171 110.312 20.0631C110.312 18.1101 110.681 16.3871 111.418 14.8951C112.183 13.3751 113.248 12.2091 114.613 11.3951C115.979 10.5541 117.535 10.1331 119.284 10.1331C120.758 10.1331 122.069 10.4451 123.216 11.0691C124.334 11.6373 125.248 12.5322 125.838 13.6331V12.5751C125.838 11.8701 126.07 11.3001 126.534 10.8651C126.998 10.4321 127.613 10.2151 128.377 10.2151ZM120.636 26.0051C122.274 26.0051 123.544 25.4751 124.444 24.4181C125.373 23.3591 125.838 21.9081 125.838 20.0631C125.838 18.1911 125.373 16.7261 124.444 15.6681C123.544 14.6101 122.274 14.0811 120.636 14.0811C119.024 14.0811 117.754 14.6101 116.826 15.6681C115.898 16.7261 115.433 18.1911 115.433 20.0631C115.433 21.9081 115.898 23.3591 116.826 24.4181C117.754 25.4761 119.024 26.0051 120.636 26.0051ZM143.471 30.8471C140.494 30.8471 138.092 30.2641 136.262 29.0971C135.388 28.5821 134.951 27.8491 134.951 26.9001C134.951 26.3571 135.101 25.9231 135.401 25.5981C135.702 25.2451 136.07 25.0681 136.507 25.0681C136.971 25.0681 137.613 25.2861 138.433 25.7201C139.307 26.1271 140.099 26.4391 140.808 26.6561C141.546 26.8731 142.474 26.9811 143.594 26.9811C144.741 26.9811 145.629 26.7911 146.257 26.4111C146.912 26.0311 147.239 25.5031 147.239 24.8241C147.239 24.3641 147.104 23.9971 146.83 23.7261C146.584 23.4541 146.12 23.2101 145.438 22.9931C144.781 22.7491 143.772 22.4781 142.406 22.1791C139.976 21.6911 138.228 20.9991 137.163 20.1041C136.125 19.2091 135.606 17.9741 135.606 16.4011C135.606 15.2071 135.961 14.1351 136.671 13.1851C137.381 12.2091 138.35 11.4631 139.579 10.9471C140.836 10.4051 142.256 10.1331 143.839 10.1331C144.987 10.1331 146.093 10.2831 147.158 10.5811C148.174 10.8313 149.142 11.2433 150.026 11.8011C150.899 12.3441 151.336 13.0631 151.336 13.9591C151.336 14.5011 151.186 14.9631 150.885 15.3421C150.585 15.6951 150.216 15.8721 149.779 15.8721C149.479 15.8721 149.178 15.8171 148.878 15.7091C148.519 15.5273 148.164 15.3372 147.813 15.1391C147.021 14.7321 146.339 14.4341 145.765 14.2441C145.191 14.0271 144.481 13.9181 143.635 13.9181C142.624 13.9181 141.819 14.1221 141.218 14.5281C140.644 14.9351 140.357 15.4921 140.357 16.1971C140.357 16.8751 140.658 17.3911 141.259 17.7431C141.86 18.0961 143.021 18.4491 144.741 18.8021C146.571 19.1821 148.004 19.6151 149.042 20.1041C150.08 20.5921 150.817 21.2031 151.254 21.9351C151.719 22.6681 151.95 23.6041 151.95 24.7431C151.95 26.5881 151.172 28.0671 149.616 29.1791C148.086 30.2911 146.038 30.8471 143.471 30.8471Z" fill="#9C9C9C"/>
</svg>
