<svg width="140" height="50" viewBox="0 0 140 50" fill="none" xmlns="http://www.w3.org/2000/svg">
<g clip-path="url(#clip0_30_15)">
<path d="M25.0912 10.784L20.4561 39.082H13.7965L15.4886 28.864H8.3154L6.65755 39.082H0L4.67237 10.784H11.2947L9.30849 22.732H16.4817L18.4699 10.784H25.0912ZM38.7498 39.082L38.9714 32.912H32.8275L31.0246 39.082H23.9974L33.453 10.784H45.5927L45.7407 39.082H38.7498ZM37.242 17.662L34.3363 27.645H39.1557L39.5596 17.663L37.242 17.662ZM74.3138 10.784L69.6777 39.082H63.0181L58.384 23.598L55.8822 39.083H49.2216L53.894 10.784H60.7368L65.2994 25.248L67.6895 10.784H74.3138ZM89.8498 10.784C93.0627 10.784 95.3561 11.649 96.7289 13.378C97.7351 14.688 98.2367 16.326 98.2367 18.291C98.2367 18.999 98.1763 19.745 98.0544 20.531L96.6191 29.296C96.1286 32.256 94.926 34.628 93.0134 36.41C91.0997 38.192 88.623 39.082 85.5803 39.082H74.8748L79.5482 10.784H89.8498ZM87.5312 16.916H85.1401L82.5285 32.95H86.0235C87.1757 32.95 88.0711 32.622 88.7086 31.968C89.3714 31.286 89.8246 30.186 90.0684 28.667L91.137 22.221C91.2296 21.701 91.279 21.175 91.284 20.648C91.284 18.158 90.0341 16.916 87.5312 16.916ZM117.955 39.082H99.4856L104.16 10.784H122.629L121.599 16.916H109.752L108.906 22.222H118.692L117.662 28.352H107.876L107.14 32.951H118.987L117.955 39.082ZM138.97 39.082H122.193L126.866 10.784H133.488L129.846 32.951H140L138.97 39.082ZM73.9996 44.118H138L136 50H72.0003L73.9996 44.118ZM7 0H77L74.9997 5.882H4.99971L7 0Z" fill="#9C9C9C"/>
</g>
<defs>
<clipPath id="clip0_30_15">
<rect width="140" height="50" fill="white"/>
</clipPath>
</defs>
</svg>
