<svg width="209" height="41" viewBox="0 0 209 41" fill="none" xmlns="http://www.w3.org/2000/svg">
<g clip-path="url(#clip0_30_17)">
<mask id="mask0_30_17" style="mask-type:luminance" maskUnits="userSpaceOnUse" x="0" y="0" width="209" height="41">
<path d="M0 0H209V41H0V0Z" fill="white"/>
</mask>
<g mask="url(#mask0_30_17)">
<path fill-rule="evenodd" clip-rule="evenodd" d="M14.0021 36.1229C13.8686 36.1217 13.7372 36.09 13.6178 36.0304C13.4985 35.9708 13.3945 35.8847 13.3138 35.7789C13.0846 35.4756 12.9297 35.1233 12.8617 34.7499C12.7527 34.2746 12.6689 33.7939 12.6105 33.3099C12.541 32.6866 12.5055 32.06 12.5039 31.4329C12.4833 30.0549 12.488 28.6767 12.518 27.2989C12.5361 26.4529 12.5441 25.7929 12.5441 25.3169V9.56489C12.5441 8.78889 12.5492 8.19889 12.5582 7.79389C12.5672 7.38889 12.5984 6.93089 12.6496 6.41989C12.6798 6.03989 12.7461 5.66389 12.8496 5.29689C12.9501 5.01389 13.0837 4.74389 13.2465 4.49089C13.3972 4.22589 13.6163 4.00689 13.8825 3.85689C14.192 3.70289 14.5105 3.56689 14.8361 3.44689C15.2556 3.29171 15.6904 3.18109 16.1333 3.11689C16.7104 3.03305 17.2893 2.96237 17.8696 2.90489V1.44989L17.4174 0.999894H1.4189L0.994873 1.44989V2.69189C3.67972 2.85089 5.1809 3.60889 5.49842 4.96489C5.68331 6.10989 5.77173 7.26789 5.76369 8.42689V32.5539C5.80811 33.8071 5.75469 35.0619 5.60393 36.3069C5.53057 36.5009 5.42306 36.6789 5.28641 36.8349C5.0818 37.0784 4.86551 37.3121 4.63831 37.5349C4.45829 37.708 4.28597 37.8888 4.12183 38.0769V39.0019C17.7742 39.0019 26.2246 39.0899 29.4731 39.2669L30.6136 35.4349L29.8982 34.9319C24.6229 35.5929 19.3175 35.9899 14.0031 36.1219L14.0021 36.1229ZM39.3795 25.0769C39.3277 25.0913 39.2745 25.1001 39.2208 25.1029C38.9565 25.1029 38.8239 25.0069 38.8239 24.8129C38.8249 23.9369 38.8912 23.0619 39.0228 22.1959C39.1715 21.2519 39.4197 20.3259 39.7644 19.4349C40.0965 18.5315 40.5519 17.6778 41.1179 16.8979C41.7176 16.1045 42.4965 15.4626 43.3916 15.0242C44.2867 14.5857 45.2729 14.363 46.2705 14.3739C46.9904 14.3341 47.7083 14.4814 48.3538 14.8012C48.9992 15.121 49.55 15.6023 49.9521 16.1979C50.7873 17.4297 51.2222 18.8871 51.1981 20.3729C51.1945 20.6453 51.1076 20.9101 50.9489 21.132C50.7902 21.3539 50.5672 21.5224 50.3098 21.6149C48.8592 22.1967 47.378 22.6997 45.8726 23.1219C43.7554 23.7419 41.6452 24.3853 39.5423 25.0519C39.4873 25.0542 39.4327 25.0626 39.3795 25.0769ZM55.1148 33.3219C51.9346 35.2419 49.1885 36.2019 46.8774 36.2019C45.3118 36.2357 43.7745 35.7831 42.4794 34.9069C41.2746 34.1023 40.3166 32.9821 39.7111 31.6699C39.1149 30.354 38.8123 28.9253 38.8239 27.4819C50.3741 23.9059 56.202 22.1169 56.3075 22.1169C56.7662 22.0235 57.1761 21.7696 57.4628 21.4011C57.7494 21.0327 57.8939 20.5742 57.87 20.1089C57.9014 18.8116 57.5958 17.5282 56.9828 16.3829C56.4229 15.3585 55.5943 14.5045 54.5853 13.9119C53.5672 13.3172 52.464 12.8805 51.3136 12.6169C50.0659 12.3357 48.7898 12.1982 47.5104 12.2069C45.2154 12.1715 42.9395 12.6267 40.8365 13.5419C38.9822 14.339 37.3439 15.5617 36.0556 17.1099C34.841 18.6069 33.9037 20.3071 33.2874 22.1309C32.6483 24.0075 32.3258 25.9764 32.3328 27.9579C32.3328 32.0279 33.4381 35.0759 35.6447 37.1019C37.6402 38.9519 40.4577 39.8759 44.0951 39.8759C46.1807 39.8546 48.2335 39.3575 50.0958 38.4229C52.3384 37.3113 54.4867 36.0204 56.5195 34.5629L55.9398 33.5349L55.1148 33.3219ZM90.7945 5.45689C90.0847 3.61168 88.6908 2.10772 86.8999 1.25489C84.6815 0.326042 82.2852 -0.106812 79.8803 -0.0131064C78.1253 -0.0231252 76.3762 0.189931 74.6754 0.620894C73.0933 1.0218 71.583 1.66372 70.198 2.52389C68.8414 3.37504 67.7319 4.56436 66.9796 5.97389C66.163 7.51566 65.7526 9.23837 65.7869 10.9809C65.786 12.2282 66.0905 13.457 66.6741 14.5609C67.2316 15.6534 67.986 16.6347 68.8998 17.4559C69.8825 18.3185 70.9269 19.1089 72.0247 19.8209C73.1267 20.5516 74.2678 21.2219 75.4431 21.8289C76.5479 22.3941 77.6347 22.9937 78.7017 23.6269C79.5859 24.1249 80.4159 24.7139 81.1785 25.3839C83.1379 27.1989 84.1186 28.9249 84.1186 30.5639C84.115 31.4345 83.9321 32.2951 83.5813 33.0927C83.2305 33.8902 82.7191 34.6077 82.0788 35.2009C81.4432 35.852 80.6808 36.3672 79.8382 36.7149C78.9955 37.0626 78.0905 37.2354 77.1784 37.2229C76.1119 37.2534 75.0526 37.0406 74.0814 36.6009C73.1103 36.1611 72.2532 35.5061 71.5756 34.6859C70.1695 33.0835 69.4018 31.0242 69.4173 28.8969L68.3853 28.5269L63.1141 34.4199C64.3188 36.1551 65.9521 37.5522 67.8568 38.4769C69.7934 39.4225 71.9245 39.9069 74.0816 39.8919C76.0498 39.882 78.0055 39.5787 79.8833 38.9919C81.7718 38.4261 83.5727 37.6033 85.2349 36.5469C86.8151 35.5426 88.157 34.2085 89.1678 32.6369C90.1584 31.1425 90.6879 29.3922 90.691 27.6019C90.699 26.6411 90.5287 25.6871 90.1886 24.7879C89.8741 23.9528 89.4366 23.1689 88.8904 22.4619C88.2475 21.677 87.5036 20.9796 86.6778 20.3879C85.7756 19.7107 84.8334 19.088 83.8563 18.5229C82.6869 17.8597 81.5036 17.2209 80.3074 16.6069C79.4732 16.2045 78.6516 15.777 77.8436 15.3249C77.0794 14.8804 76.3358 14.402 75.6149 13.8909C74.8758 13.3867 74.2004 12.7958 73.6033 12.1309C73.0785 11.5104 72.6497 10.8154 72.3312 10.0689C71.9776 9.26505 71.7972 8.39638 71.8017 7.51889C71.7854 6.80124 71.9139 6.08763 72.1797 5.42031C72.4455 4.75299 72.8431 4.14553 73.3491 3.63389C73.8838 3.10204 74.5236 2.68653 75.2281 2.41369C75.9326 2.14085 76.6864 2.01662 77.4417 2.04889C78.3772 2.00868 79.3101 2.17494 80.1735 2.53576C81.0368 2.89657 81.8093 3.44301 82.4355 4.13589C83.6903 5.5492 84.4806 7.31068 84.7004 9.18389L85.6278 9.47389L90.7945 5.45689ZM116.556 15.5919C116.083 14.7671 115.397 14.0829 114.569 13.6099C113.75 13.1441 112.867 12.8014 111.947 12.5929C110.96 12.3751 109.951 12.2687 108.94 12.2759C107.012 12.2489 105.095 12.5759 103.284 13.2409C101.731 13.8022 100.308 14.6695 99.0993 15.7909C97.9761 16.8738 97.0447 18.1375 96.3441 19.5289C95.624 20.9286 95.0938 22.4173 94.7676 23.9559C94.4457 25.5121 94.2861 27.0971 94.2913 28.6859C94.2852 30.0359 94.4772 31.3799 94.86 32.6739C95.2318 33.9269 95.8095 35.1099 96.5682 36.1759C97.3681 37.2754 98.441 38.1496 99.6821 38.7129C101.107 39.3609 102.659 39.6819 104.225 39.6509C109.188 39.6509 113.85 37.4749 118.212 33.1239L117.682 32.3569L117.02 32.1989C113.789 34.6829 110.803 35.9249 108.066 35.9249C107.042 35.9413 106.028 35.71 105.113 35.2509C104.283 34.841 103.561 34.2442 103.004 33.5079C102.451 32.751 102.001 31.9245 101.666 31.0499C101.318 30.1766 101.065 29.2687 100.911 28.3419C100.77 27.4679 100.7 26.5839 100.699 25.6989C100.705 24.5739 100.802 23.4519 100.99 22.3429C101.198 21.1079 101.509 19.8929 101.918 18.7089C102.289 17.5518 102.934 16.5003 103.799 15.6429C104.179 15.2592 104.633 14.9551 105.134 14.7487C105.634 14.5423 106.171 14.4376 106.713 14.4409C107.437 14.4012 108.157 14.5632 108.793 14.9088C109.43 15.2543 109.957 15.7697 110.315 16.3969C111.134 17.8656 111.537 19.5281 111.481 21.2069L112.408 21.5769L117.415 18.6179C117.374 17.5557 117.079 16.5185 116.556 15.5919ZM126.265 23.4539C126.4 22.4159 126.635 21.3939 126.968 20.4019C127.272 19.4369 127.704 18.5179 128.252 17.6669C128.778 16.8786 129.481 16.2227 130.306 15.7509C131.194 15.2401 132.206 14.9798 133.233 14.9979C134.346 14.9697 135.444 15.2583 136.398 15.8299C137.284 16.3792 137.996 17.1673 138.451 18.1029C138.93 19.0699 139.277 20.0959 139.482 21.1549C139.701 22.2949 139.808 23.4549 139.801 24.6169C139.801 25.6739 139.792 26.5549 139.774 27.2589C139.746 28.107 139.684 28.9536 139.589 29.7969C139.511 30.6269 139.365 31.4479 139.152 32.2539C138.944 32.9639 138.674 33.6539 138.344 34.3159C138.041 34.9712 137.603 35.5561 137.059 36.0329C136.497 36.4894 135.861 36.8469 135.178 37.0899C134.35 37.3848 133.475 37.5281 132.596 37.5129C131.627 37.5247 130.678 37.2383 129.88 36.6929C129.1 36.1734 128.453 35.4818 127.986 34.6719C127.497 33.8003 127.114 32.8733 126.847 31.9109C126.566 30.9638 126.362 29.9957 126.237 29.0159C126.135 28.1697 126.082 27.3182 126.078 26.4659C126.078 25.459 126.14 24.4531 126.265 23.4539ZM122.981 37.1169C124.905 38.8609 127.96 39.7329 132.146 39.7329C133.694 39.7429 135.237 39.5659 136.742 39.2039C138.158 38.8536 139.508 38.2782 140.74 37.4999C141.978 36.7226 143.06 35.7233 143.932 34.5529C144.885 33.2258 145.594 31.7402 146.025 30.1659C146.559 28.2567 146.818 26.2816 146.793 24.2999C146.845 22.7043 146.547 21.1167 145.92 19.6473C145.293 18.1778 144.353 16.8615 143.164 15.7899C140.956 13.8179 137.75 12.8309 133.548 12.8309C129.345 12.8309 125.883 14.1259 123.163 16.7159C121.828 17.972 120.774 19.4946 120.071 21.1842C119.368 22.8737 119.032 24.692 119.084 26.5199C119.084 31.2419 120.381 34.7739 122.978 37.1169H122.981ZM164.437 16.1869C165.85 16.1869 166.856 16.4689 167.457 17.0329C168.017 17.7129 168.371 18.5389 168.476 19.4129C168.698 20.4429 168.836 21.4909 168.887 22.5439C168.922 23.4689 168.94 24.6629 168.94 26.1249C168.939 28.0233 168.926 29.9217 168.901 31.8199C168.892 32.3919 168.896 33.0659 168.913 33.8419C168.918 34.4199 168.954 34.9979 169.02 35.5719C169.073 35.9519 169.143 36.3659 169.232 36.8139C169.293 37.1899 169.419 37.5509 169.603 37.8839C169.761 38.1489 169.956 38.3899 170.183 38.5989C170.978 39.3166 172.024 39.6957 173.096 39.6549C174.422 39.6549 175.94 38.9849 177.653 37.6469C179.083 36.4635 180.445 35.2015 181.733 33.8669L181.124 32.9669H180.488C179.452 33.7941 178.185 34.2833 176.859 34.3679C176.579 34.3839 176.298 34.343 176.033 34.2476C175.769 34.1522 175.527 34.0043 175.322 33.8129C175.139 33.669 174.982 33.4952 174.858 33.2989C174.712 32.9532 174.619 32.5879 174.58 32.2149C174.479 31.4573 174.435 30.6931 174.448 29.9289C174.448 29.3479 174.479 28.4089 174.54 27.1149C174.59 26.1949 174.621 25.2741 174.634 24.3529V22.7669C174.651 21.0579 174.647 19.8739 174.621 19.2119C174.568 18.3087 174.466 17.4091 174.315 16.5169C174.249 15.6757 173.967 14.8656 173.494 14.1649C173.028 13.6614 172.47 13.2494 171.851 12.9499C171.01 12.545 170.083 12.3497 169.149 12.3809C166.042 12.3809 162.438 13.6499 158.342 16.1869L157.706 15.9489C157.671 14.9772 157.354 14.0363 156.792 13.2409C156.271 12.5609 155.375 12.2229 154.103 12.2229C153.342 12.2324 152.586 12.3617 151.865 12.6059C151.026 12.8859 150.225 13.2679 149.479 13.7419C148.675 14.2449 147.978 14.7119 147.386 15.1429C146.794 15.5739 146.11 16.0979 145.333 16.7149L146.313 18.0099C146.493 17.8939 146.675 17.7796 146.857 17.6669C147.165 17.4729 147.435 17.3149 147.665 17.1909C147.894 17.0679 148.168 16.9229 148.486 16.7549C148.77 16.6009 149.067 16.4719 149.374 16.3689C149.608 16.2889 149.853 16.2439 150.101 16.2369C150.408 16.2299 150.71 16.3069 150.975 16.4619C151.245 16.6389 151.448 16.8989 151.556 17.2019C151.689 17.5219 151.803 17.8469 151.9 18.1789C152.008 18.6259 152.071 19.0819 152.086 19.5409C152.122 20.1409 152.143 20.6249 152.15 20.9939C152.158 21.3629 152.162 21.9179 152.163 22.6589V23.1089C152.163 24.8349 152.031 30.1199 151.766 38.9639L152.428 39.3339L158.389 37.6159C158.212 36.8589 158.079 34.4719 157.991 30.4559C157.903 26.5275 157.861 22.5983 157.862 18.6689C160.935 17.0129 163.125 16.1849 164.432 16.1849L164.437 16.1869ZM190.133 25.1969C190.081 25.2122 190.028 25.2216 189.974 25.2249C189.71 25.2249 189.577 25.1279 189.576 24.9349C189.577 24.0579 189.643 23.1839 189.776 22.3179C189.925 21.3739 190.173 20.4479 190.517 19.5559C190.849 18.6529 191.303 17.7989 191.868 17.0189C192.468 16.2253 193.247 15.5832 194.142 15.1447C195.037 14.7063 196.023 14.4836 197.021 14.4949C197.741 14.455 198.459 14.6022 199.104 14.922C199.75 15.2418 200.3 15.7232 200.702 16.3189C201.538 17.5506 201.972 19.0081 201.947 20.4939C201.943 20.766 201.857 21.0306 201.698 21.2524C201.54 21.4742 201.317 21.6428 201.06 21.7359C199.61 22.3174 198.129 22.8204 196.624 23.2429C194.506 23.8628 192.396 24.5062 190.293 25.1729C190.239 25.1758 190.186 25.1842 190.134 25.1979L190.133 25.1969ZM205.868 33.4429C202.688 35.3639 199.942 36.3239 197.63 36.3229C196.064 36.3565 194.527 35.9042 193.232 35.0289C192.027 34.224 191.07 33.1039 190.464 31.7919C189.868 30.4755 189.565 29.046 189.576 27.6019C201.126 24.0269 206.954 22.2389 207.061 22.2389C207.52 22.1451 207.929 21.8909 208.216 21.5224C208.503 21.1538 208.647 20.6953 208.623 20.2299C208.655 18.9326 208.349 17.6492 207.736 16.5039C207.176 15.4795 206.348 14.6256 205.339 14.0329C204.32 13.4384 203.217 13.0018 202.067 12.7379C200.819 12.4566 199.542 12.3191 198.263 12.3279C195.968 12.2927 193.693 12.7479 191.591 13.6629C189.737 14.4599 188.098 15.6826 186.81 17.2309C185.595 18.7277 184.658 20.4279 184.042 22.2519C183.402 24.1284 183.08 26.0975 183.088 28.0789C183.088 32.1489 184.191 35.1959 186.399 37.2229C188.395 39.0729 191.211 39.9969 194.849 39.9969C196.935 39.9755 198.988 39.4785 200.85 38.5439C203.092 37.4321 205.241 36.1415 207.274 34.6849L206.694 33.6559L205.868 33.4429Z" fill="#9C9C9C"/>
</g>
</g>
<defs>
<clipPath id="clip0_30_17">
<rect width="209" height="41" fill="white"/>
</clipPath>
</defs>
</svg>
