<svg width="205" height="50" viewBox="0 0 205 50" fill="none" xmlns="http://www.w3.org/2000/svg">
<g clip-path="url(#clip0_30_25)">
<path d="M55.4907 44.9122C52.1029 44.9122 49.506 44.3326 47.6989 43.1734C45.9234 41.9816 45.0366 40.2418 45.0366 37.9551C45.0366 36.7959 45.4244 35.8449 46.1978 35.104C47.005 34.3316 48.0376 33.9449 49.2958 33.9449C50.0376 33.9775 50.6019 34.1693 50.9897 34.5245C51.3774 34.8469 51.5713 35.153 51.5713 35.4428C51.5713 35.4745 51.4091 35.5877 51.0866 35.7806C50.7642 35.9745 50.4744 36.2642 50.2152 36.65C49.957 37.0377 49.8274 37.5683 49.8274 38.2449C49.8274 39.7591 50.2805 40.9347 51.1836 41.7724C52.1193 42.5775 53.555 42.9796 55.4907 42.9796C56.8142 42.9796 57.9754 42.7224 58.9764 42.2071C59.9764 41.6918 60.7346 41.0153 61.2509 40.1775C61.7989 39.3081 62.0734 38.4061 62.0734 37.4714C62.0734 36.3122 61.7346 35.3142 61.057 34.4765C60.3989 33.6279 59.576 32.9212 58.6376 32.3989C57.6683 31.8193 56.3458 31.1581 54.6683 30.4173C52.7325 29.5479 51.1683 28.7591 49.9744 28.05C48.7747 27.3368 47.7358 26.3827 46.9234 25.2479C46.0856 24.0561 45.6662 22.5908 45.6662 20.851C45.6662 18.0489 46.6172 15.9551 48.5213 14.5704C50.458 13.1847 52.9907 12.4928 56.1203 12.4928C58.5723 12.4928 60.7019 13.0081 62.5091 14.0387C64.3489 15.0694 65.2683 16.5836 65.2683 18.5796C65.2683 19.7398 64.8642 20.7061 64.058 21.4796C63.2836 22.2204 62.2672 22.5908 61.0091 22.5908C60.2662 22.5581 59.7019 22.3806 59.3152 22.0591C58.9274 21.7051 58.7336 21.3826 58.7336 21.0928C58.7336 21.0602 58.9438 20.9479 59.3631 20.754C59.8152 20.5612 60.2019 20.2714 60.5244 19.8847C60.8795 19.4979 61.057 18.9663 61.057 18.2908C61.057 17.0989 60.5897 16.1642 59.654 15.4877C58.7499 14.8112 57.5887 14.4734 56.1683 14.4734C54.2009 14.4734 52.6999 14.9408 51.6683 15.8745C50.6672 16.7765 50.1672 17.904 50.1672 19.2571C50.1672 20.3836 50.4734 21.3347 51.0866 22.1071C51.6989 22.8479 52.6836 23.5887 54.0387 24.3296C55.2137 24.9474 56.4082 25.5276 57.6203 26.0694C59.6856 27.003 61.3152 27.8571 62.5091 28.6306C63.7383 29.4068 64.7797 30.4465 65.5581 31.6745C66.3968 32.9296 66.8172 34.4928 66.8172 36.3602C66.8172 37.9714 66.3009 39.4367 65.2683 40.7581C64.2683 42.0459 62.8958 43.0602 61.154 43.801C59.4438 44.5418 57.556 44.9122 55.4907 44.9122ZM79.9938 44.5265C77.7999 44.5265 76.057 43.8653 74.7662 42.5449C73.4754 41.2245 72.8305 39.4847 72.8305 37.3265V28.3877C72.8305 27.551 72.7978 26.9387 72.7336 26.552C72.7019 26.1663 72.508 25.8275 72.1519 25.5377C71.7978 25.2479 71.2009 25.103 70.3621 25.103C69.9744 25.103 69.6846 25.0551 69.4907 24.9581C69.2968 24.8296 69.2009 24.5551 69.2009 24.1367C69.2009 23.9428 69.2652 23.7663 69.3948 23.6061C69.5234 23.4122 69.7172 23.3 69.9754 23.2673C72.008 22.9765 73.7509 22.5581 75.2019 22.0102C75.654 21.85 76.0244 21.753 76.3152 21.7204H76.4601C76.9764 21.7204 77.2356 22.0265 77.2356 22.6387V37.2785C77.2356 38.7602 77.7029 39.904 78.6387 40.7091C79.5457 41.4718 80.6966 41.8832 81.8815 41.8683C83.3978 41.8683 84.6876 41.4979 85.7529 40.7571C86.8183 40.0163 87.5285 39.2755 87.8825 38.5347V28.3887C87.8825 27.551 87.8509 26.9398 87.7866 26.552C87.754 26.1663 87.5601 25.8275 87.205 25.5377C86.8499 25.2479 86.2529 25.103 85.4142 25.103C85.0264 25.103 84.7366 25.0551 84.5438 24.9581C84.3499 24.8296 84.2529 24.5551 84.2529 24.1367C84.2529 23.9428 84.3172 23.7663 84.4468 23.6061C84.5754 23.4122 84.7693 23.3 85.0274 23.2673C87.0601 22.9765 88.8029 22.5581 90.255 22.0102C90.706 21.85 91.0774 21.753 91.3672 21.7204H91.5131C92.0295 21.7204 92.2876 22.0265 92.2876 22.6387V39.3571C92.2876 41.2581 93.5621 42.2081 96.1111 42.2081C96.6591 42.2081 96.9336 42.5142 96.9336 43.1265C96.9336 43.5765 96.6591 43.851 96.1111 43.9469L88.3183 44.4785C88.0927 44.4785 87.9631 44.3979 87.9305 44.2377C87.8999 44.1081 87.8825 43.8673 87.8825 43.5132V40.8061H87.7866C87.0458 41.5019 86.2871 42.1783 85.5111 42.8347C84.9305 43.2857 84.1723 43.6724 83.2356 43.9949C82.3325 44.3489 81.2519 44.5255 79.9938 44.5255V44.5265ZM99.5815 44.0918C99.4687 44.0913 99.3576 44.0648 99.2567 44.0144C99.1558 43.9639 99.068 43.8909 98.9999 43.801C98.8713 43.6081 98.806 43.3826 98.806 43.1255C98.8387 42.7071 98.9356 42.4642 99.0968 42.401C99.2591 42.304 99.5489 42.2551 99.9683 42.2551C100.807 42.2551 101.404 42.1102 101.759 41.8204C102.114 41.5306 102.308 41.1918 102.34 40.8061C102.405 40.4183 102.437 39.8071 102.437 38.9693V27.9051C102.437 27.0683 102.405 26.4561 102.34 26.0683C102.308 25.6826 102.114 25.3438 101.759 25.0551C101.404 24.7653 100.807 24.6194 99.9683 24.6194C99.5805 24.6194 99.2907 24.5714 99.0978 24.4745C98.904 24.3459 98.807 24.0724 98.807 23.653C98.807 23.4602 98.8713 23.2826 99.0009 23.1224C99.1295 22.9285 99.3233 22.8163 99.5815 22.7836C101.678 22.4612 103.405 22.0428 104.76 21.5275C105.309 21.3663 105.679 21.2694 105.873 21.2377H106.018C106.535 21.2377 106.793 21.5438 106.793 22.1561V25.151H106.938C108.067 24.0234 109.213 23.1377 110.374 22.4938C111.537 21.8173 112.585 21.4796 113.52 21.4796C114.586 21.4796 115.424 21.8816 116.038 22.6867C116.683 23.4602 117.005 24.3622 117.005 25.3928C117.005 26.2949 116.732 27.1 116.183 27.8081C115.634 28.5173 114.875 28.8714 113.908 28.8714C113.487 28.8788 113.07 28.7791 112.698 28.5816C112.375 28.3877 112.198 28.2275 112.165 28.0989C112.198 28.0347 112.359 27.8408 112.649 27.5183C112.94 27.1642 113.085 26.7622 113.085 26.3112C113.085 25.7306 112.923 25.2642 112.601 24.9102C112.31 24.5551 111.907 24.3785 111.391 24.3785C110.843 24.3785 110.149 24.652 109.31 25.2C108.47 25.7153 107.648 26.3755 106.842 27.1806V38.9693C106.842 39.8071 106.873 40.4183 106.938 40.8061C107.003 41.1918 107.212 41.5306 107.567 41.8204C107.922 42.1102 108.519 42.2551 109.358 42.2551H109.649C109.907 42.2551 110.1 42.304 110.229 42.4C110.358 42.4969 110.439 42.7387 110.471 43.1245C110.471 43.3826 110.407 43.6081 110.277 43.801C110.149 43.9949 109.955 44.0918 109.697 44.0918C108.004 43.9998 106.31 43.9512 104.615 43.9459C103.163 43.9459 101.486 43.9959 99.5815 44.0918ZM174.752 44.5265C172.558 44.5265 170.606 44.0102 168.896 42.9796C167.186 41.9173 165.847 40.5316 164.878 38.8245C163.956 37.1353 163.473 35.241 163.475 33.3163C163.475 30.901 164.04 28.8071 165.169 27.0357C166.299 25.2316 167.735 23.8622 169.476 22.9285C171.219 21.9622 172.977 21.4796 174.752 21.4796C176.947 21.4796 178.899 22.0102 180.609 23.0734C182.286 24.0701 183.659 25.5071 184.577 27.2285C185.533 28.8889 186.034 30.772 186.029 32.6877C186.029 35.104 185.449 37.2142 184.288 39.0183C183.158 40.7898 181.722 42.1581 179.979 43.1245C178.238 44.0591 176.495 44.5265 174.752 44.5265ZM174.752 42.7387C176.947 42.7387 178.544 41.804 179.544 39.9357C180.576 38.0683 181.093 35.652 181.093 32.6887C181.093 29.9183 180.56 27.6642 179.496 25.9234C178.463 24.153 176.882 23.2673 174.752 23.2673C172.526 23.2673 170.913 24.1857 169.912 26.0214C168.912 27.8571 168.412 30.2561 168.412 33.2204C168.412 35.9898 168.928 38.2775 169.961 40.0806C170.994 41.853 172.591 42.7387 174.752 42.7387ZM198.225 44.7673C196.644 44.7673 195.289 44.1877 194.159 43.0285C193.031 41.8683 192.465 40.2102 192.465 38.052V23.8469L189.658 23.9438C189.564 23.9446 189.471 23.9231 189.387 23.8811C189.303 23.839 189.23 23.7777 189.174 23.702C189.047 23.517 188.98 23.2978 188.98 23.0734C188.98 22.7836 189.029 22.5428 189.125 22.3489C189.255 22.1234 189.433 21.9949 189.658 21.9622C190.788 21.7377 191.659 21.3826 192.272 20.9C192.917 20.3836 193.386 19.8367 193.675 19.2571C193.966 18.6449 194.321 17.7265 194.741 16.502C194.902 16.0836 195.257 15.8745 195.805 15.8745C196.031 15.8745 196.257 15.9387 196.483 16.0683C196.708 16.1642 196.821 16.3255 196.821 16.551L196.483 22.0591L202.146 21.7204H202.243C202.662 21.7204 202.871 22.0265 202.871 22.6387C202.871 22.9928 202.807 23.3316 202.677 23.653C202.582 23.9438 202.452 24.0887 202.291 24.0887L196.87 23.9438V38.6316C196.87 39.6949 197.079 40.5806 197.499 41.2887C197.951 41.9979 198.676 42.352 199.677 42.352C200.677 42.352 201.565 42.1745 202.339 41.8204C202.759 41.6591 203.016 41.5785 203.113 41.5785C203.34 41.5785 203.517 41.6755 203.646 41.8683C203.775 42.0296 203.904 42.2561 204.034 42.5449C204.068 42.6208 204.084 42.7035 204.082 42.7867C204.082 42.9153 203.985 43.0602 203.791 43.2214C202.855 43.8336 201.968 44.2367 201.129 44.4296C200.322 44.654 199.354 44.7673 198.225 44.7673ZM119.997 43.801C120.125 43.9949 120.319 44.0908 120.577 44.0908C122.254 43.9987 123.932 43.9504 125.611 43.9459C127.773 43.9459 129.79 43.9949 131.661 44.0908C131.767 44.0932 131.873 44.0677 131.966 44.0169C132.06 43.966 132.138 43.8916 132.194 43.801C132.322 43.6071 132.387 43.3826 132.387 43.1245C132.355 42.7387 132.274 42.4969 132.145 42.4C132.048 42.304 131.855 42.2551 131.564 42.2551H131.273C130.209 42.2551 129.451 42.1745 128.999 42.0132C128.547 41.853 128.241 41.5622 128.079 41.1438C127.918 40.6928 127.838 39.9683 127.838 38.9704V23.9418H132.968C133.081 23.9413 133.192 23.9148 133.292 23.8646C133.393 23.8143 133.481 23.7416 133.549 23.652C133.71 23.4591 133.791 23.2336 133.791 22.9755C133.758 22.5898 133.661 22.3479 133.5 22.251C133.371 22.1224 133.161 22.0571 132.871 22.0571H127.838V19.1591C127.838 17.6132 127.902 16.2602 128.03 15.1C128.151 13.9352 128.531 12.8124 129.144 11.8142C129.757 10.8163 130.709 10.3173 132 10.3173C132.148 10.3173 132.292 10.3255 132.43 10.3428C132.412 9.80152 132.448 9.25976 132.537 8.72547C132.471 8.72366 132.405 8.72264 132.339 8.72241C129.499 8.7867 127.289 9.86527 125.708 11.9602C124.159 14.0214 123.385 16.7112 123.385 20.0285V22.0581H120.48C120.061 22.0581 119.77 22.1061 119.609 22.203C119.448 22.2673 119.351 22.5255 119.319 22.9755C119.319 23.2336 119.384 23.4591 119.512 23.652C119.674 23.8459 119.884 23.9428 120.142 23.9428H123.385V38.9693C123.385 39.8398 123.352 40.4673 123.288 40.854C123.256 41.2081 123.062 41.5306 122.707 41.8204C122.352 42.1102 121.755 42.2551 120.916 42.2551C120.497 42.2551 120.206 42.304 120.045 42.4C119.916 42.4642 119.836 42.7061 119.803 43.1245C119.803 43.3826 119.867 43.6081 119.997 43.801Z" fill="#9C9C9C"/>
<path fill-rule="evenodd" clip-rule="evenodd" d="M145.869 10.0663C145.869 10.7719 145.729 11.4703 145.458 12.1219C145.188 12.7735 144.792 13.3653 144.292 13.8637C143.793 14.3621 143.2 14.7573 142.548 15.0267C141.896 15.2961 141.197 15.4344 140.492 15.4337C139.067 15.4348 137.7 14.87 136.692 13.8634C135.683 12.8569 135.116 11.4911 135.114 10.0663C135.115 9.36068 135.254 8.66204 135.525 8.01031C135.795 7.35857 136.192 6.76651 136.691 6.26791C137.19 5.76932 137.783 5.37396 138.435 5.10442C139.087 4.83487 139.786 4.69641 140.492 4.69695C141.197 4.69628 141.896 4.83464 142.549 5.10414C143.201 5.37364 143.794 5.76899 144.293 6.26761C144.792 6.76623 145.189 7.35835 145.459 8.01015C145.73 8.66194 145.869 9.36064 145.869 10.0663ZM140.492 12.75C140.845 12.7504 141.194 12.6813 141.52 12.5466C141.846 12.412 142.142 12.2144 142.392 11.9652C142.642 11.716 142.84 11.42 142.975 11.0942C143.111 10.7684 143.18 10.4191 143.181 10.0663C143.18 9.71347 143.111 9.36409 142.976 9.03816C142.84 8.71223 142.642 8.41615 142.393 8.16682C142.143 7.9175 141.846 7.71983 141.52 7.5851C141.194 7.45038 140.845 7.38124 140.492 7.38164C139.779 7.38137 139.096 7.66386 138.592 8.16706C138.088 8.67026 137.804 9.35301 137.803 10.0653C137.804 10.7778 138.088 11.4608 138.592 11.9642C139.096 12.4676 139.779 12.7503 140.492 12.75ZM138.135 17.7694V43.6572C138.135 43.9459 138.216 44.1714 138.378 44.3327C138.539 44.5265 138.764 44.6225 139.055 44.6225C139.345 44.6225 139.587 44.4939 139.781 44.2367C139.974 44.0112 140.152 43.6725 140.313 43.2214C140.474 42.7704 140.619 42.4163 140.749 42.1582H140.991C143.088 43.7367 145.572 44.5255 148.444 44.5255C150.381 44.5255 152.203 44.0102 153.913 42.9796C155.623 41.949 156.979 40.548 157.98 38.7755C159.011 36.9725 159.528 34.9918 159.528 32.8337C159.528 30.6429 159.076 28.6949 158.172 26.9867C157.302 25.248 156.092 23.8949 154.543 22.9286C152.994 21.9623 151.267 21.4796 149.364 21.4796C148.202 21.4796 147.024 21.7204 145.831 22.2041C144.669 22.6551 143.62 23.3469 142.685 24.2816H142.54V17.8572C141.091 18.2332 139.567 18.2028 138.135 17.7694ZM152.752 40.2255C151.558 41.998 149.976 42.8837 148.009 42.8837C146.976 42.8837 146.057 42.6582 145.25 42.2071C144.475 41.7561 143.846 41.2245 143.362 40.6123C142.91 39.9684 142.637 39.3878 142.54 38.8735V26.1184C143.926 24.6357 145.637 23.8949 147.67 23.8949C149.961 23.8949 151.687 24.7969 152.849 26.601C154.01 28.3725 154.591 30.5143 154.591 33.0265C154.591 36.0225 153.979 38.4225 152.752 40.2255ZM12.9591 0.374498C13.3014 0.130593 13.7113 -0.000488281 14.1316 -0.000488281C14.5519 -0.000488281 14.9617 0.130593 15.304 0.374498C24.0387 6.60307 27.9979 14.0694 28.2479 24.7827C28.3632 29.898 27.8704 34.5816 26.3694 38.6276C24.8285 42.6765 22.0908 46.4163 18.0602 49.5755C17.8092 49.7705 17.5158 49.9036 17.2037 49.9639C16.8917 50.0241 16.5698 50.01 16.2642 49.9225C15.0296 49.5684 14.8194 48.1072 14.1316 47.1969C13.4438 48.1072 13.2357 49.5674 11.9989 49.9214C11.6936 50.0088 11.3719 50.0229 11.06 49.9626C10.7481 49.9023 10.4549 49.7693 10.204 49.5745C6.17343 46.4163 3.43466 42.6765 1.89486 38.6276C0.394863 34.5816 -0.0990149 29.898 0.0162912 24.7827C0.265271 14.0694 4.22445 6.60205 12.9591 0.374498ZM17.4755 44.9612C19.9979 42.6449 21.5183 40.1194 22.5918 37.2143C23.9438 33.6633 24.3336 29.7388 24.2163 24.8765C24.0224 16.5225 22.0632 11.0867 16.1316 6.0398V20.8031C18.451 21.399 19.4918 23.6704 19.4918 26.1704C19.4918 28.6725 18.451 30.9439 16.1316 31.5398V43.6184C16.1316 43.6184 17.2091 44.6112 17.4755 44.9612ZM10.753 44.9612C8.23058 42.6449 6.74588 40.1194 5.67139 37.2143C4.32037 33.6633 3.93058 29.7388 4.04894 24.8765C4.24282 16.5398 6.19078 11.0806 12.0979 6.0398V20.8031C9.77854 21.399 8.7367 23.6704 8.7367 26.1704C8.7367 28.6725 9.77752 30.9439 12.0979 31.5398V43.6184C12.0979 43.6184 11.0102 44.6235 10.753 44.9612ZM14.1143 23.4867C13.4019 23.4862 12.7184 23.7686 12.2142 24.2719C11.71 24.7751 11.4263 25.458 11.4255 26.1704C11.4255 27.6541 12.6296 28.8551 14.1143 28.8551C14.8266 28.8557 15.5101 28.5732 16.0143 28.07C16.5185 27.5667 16.8022 26.8838 16.803 26.1714C16.803 24.6888 15.5989 23.4867 14.1143 23.4867Z" fill="#9C9C9C"/>
</g>
<defs>
<clipPath id="clip0_30_25">
<rect width="204.082" height="50" fill="white"/>
</clipPath>
</defs>
</svg>
