<svg width="32" height="32" viewBox="0 0 32 32" fill="none" xmlns="http://www.w3.org/2000/svg">
<path d="M22.667 22.6535C20.867 22.6535 19.7337 23.2135 18.7337 23.7201C17.867 24.1601 17.1603 24.5201 16.0003 24.5201C14.8003 24.5201 14.1337 24.1868 13.267 23.7201C12.267 23.2135 11.1737 22.6535 9.33366 22.6535C7.49366 22.6535 6.40033 23.2135 5.40033 23.7201C4.82699 24.0135 4.32033 24.2668 3.70699 24.4135C3.10699 24.5468 2.66699 25.0268 2.66699 25.6268V25.7601C2.66699 26.5601 3.41366 27.1335 4.18699 26.9735C5.17366 26.7735 5.92033 26.4001 6.60033 26.0535C7.46699 25.6135 8.16033 25.2535 9.33366 25.2535C10.507 25.2535 11.2003 25.5868 12.067 26.0535C13.067 26.5601 14.1603 27.1201 16.0003 27.1201C17.8403 27.1201 18.9337 26.5601 19.9337 26.0535C20.8003 25.6135 21.507 25.2535 22.667 25.2535C23.867 25.2535 24.5337 25.5868 25.4003 26.0535C26.0937 26.4001 26.8403 26.7868 27.8403 26.9868C28.0205 27.022 28.2061 27.0171 28.3842 26.9727C28.5622 26.9282 28.7283 26.8451 28.8708 26.7294C29.0132 26.6137 29.1285 26.4681 29.2085 26.3029C29.2885 26.1377 29.3312 25.957 29.3337 25.7735V25.6535C29.3337 25.0401 28.8803 24.5601 28.2803 24.4268C27.667 24.2935 27.1737 24.0401 26.6003 23.7335C25.6003 23.2135 24.467 22.6535 22.667 22.6535ZM22.667 16.7201C20.867 16.7201 19.7337 17.2935 18.7337 17.7868C17.867 18.2135 17.1603 18.5868 16.0003 18.5868C14.8003 18.5868 14.1337 18.2535 13.267 17.7868C12.267 17.2801 11.1737 16.7201 9.33366 16.7201C7.49366 16.7201 6.40033 17.2935 5.40033 17.7868C4.82699 18.0668 4.32033 18.3335 3.69366 18.4801C3.10699 18.6135 2.66699 19.0935 2.66699 19.6935V19.8268C2.66707 20.0111 2.70822 20.193 2.78746 20.3594C2.8667 20.5258 2.98203 20.6725 3.12506 20.7887C3.26809 20.9049 3.43522 20.9877 3.61431 21.0312C3.79339 21.0747 3.97992 21.0778 4.16033 21.0401C5.16033 20.8401 5.90699 20.4535 6.60033 20.1201C7.46699 19.6535 8.13366 19.3201 9.33366 19.3201C10.5337 19.3201 11.2003 19.6535 12.067 20.1201C13.067 20.6268 14.1603 21.1868 16.0003 21.1868C17.8403 21.1868 18.9337 20.6135 19.9337 20.1201C20.8003 19.6535 21.467 19.3201 22.667 19.3201C23.867 19.3201 24.5337 19.6535 25.4003 20.1201C26.0937 20.4668 26.8403 20.8535 27.8403 21.0535C28.0216 21.0888 28.2083 21.0837 28.3874 21.0385C28.5664 20.9932 28.7332 20.909 28.8759 20.7918C29.0185 20.6746 29.1336 20.5273 29.2127 20.3605C29.2918 20.1937 29.3331 20.0114 29.3337 19.8268V19.7068C29.3337 19.0935 28.8803 18.6135 28.2803 18.4801C27.667 18.3468 27.1737 18.0935 26.6003 17.7868C25.6003 17.2801 24.467 16.7201 22.667 16.7201ZM26.6003 5.94679C25.6003 5.44013 24.4937 4.88013 22.667 4.88013C20.8403 4.88013 19.7337 5.44013 18.7337 5.94679C17.867 6.37346 17.1603 6.74679 16.0003 6.74679C14.8003 6.74679 14.1337 6.41346 13.267 5.94679C12.267 5.45346 11.1737 4.88013 9.33366 4.88013C7.49366 4.88013 6.40033 5.44013 5.40033 5.94679C4.82699 6.24013 4.32033 6.49346 3.70699 6.64013C3.10699 6.77346 2.66699 7.25346 2.66699 7.85346V7.94679C2.66699 8.74679 3.38699 9.33346 4.16033 9.17346C5.16033 8.97346 5.90699 8.58679 6.60033 8.25346C7.46699 7.81346 8.16033 7.45346 9.33366 7.45346C10.507 7.45346 11.2003 7.78679 12.067 8.25346C13.067 8.76013 14.1603 9.32013 16.0003 9.32013C17.8403 9.32013 18.9337 8.74679 19.9337 8.25346C20.8003 7.82679 21.507 7.45346 22.667 7.45346C23.867 7.45346 24.5337 7.78679 25.4003 8.25346C26.0937 8.60013 26.8403 8.98679 27.8403 9.18679C28.0216 9.22215 28.2083 9.21703 28.3874 9.1718C28.5664 9.12656 28.7332 9.04234 28.8759 8.92514C29.0185 8.80794 29.1336 8.66066 29.2127 8.49384C29.2918 8.32702 29.3331 8.14477 29.3337 7.96013V7.84013C29.3337 7.22679 28.8803 6.74679 28.2803 6.61346C27.667 6.48013 27.1737 6.24013 26.6003 5.94679ZM22.667 10.7868C20.867 10.7868 19.7337 11.3601 18.7337 11.8535C17.867 12.3201 17.2003 12.6535 16.0003 12.6535C14.8003 12.6535 14.1337 12.3201 13.267 11.8535C12.267 11.3468 11.1737 10.7868 9.33366 10.7868C7.49366 10.7868 6.40033 11.3601 5.40033 11.8535C4.82699 12.1601 4.33366 12.4135 3.72033 12.5468C3.12033 12.6801 2.66699 13.1601 2.66699 13.7735V13.8935C2.66707 14.0778 2.70822 14.2597 2.78746 14.4261C2.8667 14.5925 2.98203 14.7391 3.12506 14.8553C3.26809 14.9715 3.43522 15.0544 3.61431 15.0979C3.79339 15.1414 3.97992 15.1444 4.16033 15.1068C5.16033 14.9068 5.90699 14.5201 6.60033 14.1868C7.46699 13.7601 8.17366 13.3868 9.33366 13.3868C10.4937 13.3868 11.2003 13.7201 12.067 14.1868C13.067 14.6935 14.1603 15.2535 16.0003 15.2535C17.8403 15.2535 18.9337 14.6801 19.9337 14.1868C20.8003 13.7601 21.507 13.3868 22.667 13.3868C23.867 13.3868 24.5337 13.7201 25.4003 14.1868C26.0937 14.5335 26.8403 14.9201 27.8403 15.1201C28.0205 15.1553 28.2061 15.1505 28.3842 15.106C28.5622 15.0615 28.7283 14.9785 28.8708 14.8627C29.0132 14.747 29.1285 14.6014 29.2085 14.4362C29.2885 14.271 29.3312 14.0903 29.3337 13.9068V13.7868C29.3337 13.1735 28.8803 12.6935 28.2803 12.5601C27.667 12.4268 27.1737 12.1735 26.6003 11.8668C25.6003 11.3468 24.467 10.7868 22.667 10.7868Z" fill="url(#paint0_linear_61_279)"/>
<defs>
<linearGradient id="paint0_linear_61_279" x1="16.0503" y1="4.88013" x2="16.0503" y2="27.1201" gradientUnits="userSpaceOnUse">
<stop stop-color="#FFBB00"/>
<stop offset="1" stop-color="#FF8800"/>
</linearGradient>
</defs>
</svg>
