<svg width="32" height="32" viewBox="0 0 32 32" fill="none" xmlns="http://www.w3.org/2000/svg">
<g clip-path="url(#clip0_61_244)">
<path d="M25.3343 9.33337H24.241L21.9743 3.09337C21.7867 2.57885 21.4457 2.13424 20.9975 1.81953C20.5493 1.50482 20.0153 1.33514 19.4676 1.33337H17.3343C16.601 1.33337 16.001 1.93337 16.001 2.66671C16.001 3.40004 16.601 4.00004 17.3343 4.00004H19.4676L21.4143 9.33337H15.001L14.521 8.00004H14.641C15.3743 8.00004 15.9743 7.40004 15.9743 6.66671C15.9743 5.93337 15.3743 5.33337 14.641 5.33337H10.6676C9.93431 5.33337 9.33431 5.93337 9.33431 6.66671C9.33431 7.40004 9.93431 8.00004 10.6676 8.00004H11.6676L14.0943 14.6667H13.201C12.6143 11.6934 10.121 9.49337 7.00098 9.34671C3.26764 9.16004 0.000976562 12.2667 0.000976562 16C0.000976562 19.7334 2.93431 22.6667 6.66764 22.6667C9.94764 22.6667 12.601 20.4134 13.201 17.3334H18.801C19.3876 20.3067 21.881 22.5067 25.001 22.6534C28.7343 22.8267 32.001 19.7334 32.001 15.9867C32.001 12.2667 29.0676 9.33337 25.3343 9.33337ZM8.00098 17.3334H10.4276C9.86764 18.9734 8.29431 20.1067 6.40098 19.9867C4.41431 19.8667 2.76098 18.1867 2.66764 16.1867C2.57431 13.8534 4.36098 12 6.66764 12C8.44098 12 9.89431 13.1067 10.4276 14.6667H8.00098C7.26764 14.6667 6.66764 15.2667 6.66764 16C6.66764 16.7334 7.26764 17.3334 8.00098 17.3334ZM18.801 14.6667H16.9343L15.961 12H20.001C19.4143 12.7734 18.9876 13.6667 18.801 14.6667ZM25.1743 20C23.121 19.92 21.3876 18.1734 21.3343 16.1067C21.3076 14.8267 21.8543 13.7067 22.7343 12.96L23.561 15.2267C23.8143 15.92 24.5743 16.28 25.2676 16.0267C25.961 15.7734 26.321 15.0134 26.0676 14.32L25.2276 12.0134L25.241 12C25.7756 11.9818 26.3083 12.0721 26.807 12.2655C27.3057 12.4588 27.7601 12.7513 28.1426 13.1251C28.5252 13.499 28.828 13.9464 29.0328 14.4406C29.2376 14.9347 29.3402 15.4652 29.3343 16C29.3343 18.2934 27.4943 20.08 25.1743 20ZM14.6676 26.6667H9.33431L17.3343 30.6667V28H22.6676L14.6676 24V26.6667Z" fill="url(#paint0_linear_61_244)"/>
</g>
<defs>
<linearGradient id="paint0_linear_61_244" x1="16.0609" y1="1.33337" x2="16.0609" y2="30.6667" gradientUnits="userSpaceOnUse">
<stop stop-color="#FFBB00"/>
<stop offset="1" stop-color="#FF8800"/>
</linearGradient>
<clipPath id="clip0_61_244">
<rect width="32" height="32" fill="white"/>
</clipPath>
</defs>
</svg>
