<svg width="32" height="32" viewBox="0 0 32 32" fill="none" xmlns="http://www.w3.org/2000/svg">
<path d="M24.0007 10.6667H22.6673V8.00004C22.6673 4.32004 19.6807 1.33337 16.0007 1.33337C12.3207 1.33337 9.33398 4.32004 9.33398 8.00004V10.6667H8.00065C6.53398 10.6667 5.33398 11.8667 5.33398 13.3334V26.6667C5.33398 28.1334 6.53398 29.3334 8.00065 29.3334H24.0007C25.4673 29.3334 26.6673 28.1334 26.6673 26.6667V13.3334C26.6673 11.8667 25.4673 10.6667 24.0007 10.6667ZM16.0007 22.6667C14.534 22.6667 13.334 21.4667 13.334 20C13.334 18.5334 14.534 17.3334 16.0007 17.3334C17.4673 17.3334 18.6673 18.5334 18.6673 20C18.6673 21.4667 17.4673 22.6667 16.0007 22.6667ZM12.0007 10.6667V8.00004C12.0007 5.78671 13.7873 4.00004 16.0007 4.00004C18.214 4.00004 20.0007 5.78671 20.0007 8.00004V10.6667H12.0007Z" fill="url(#paint0_linear_61_288)"/>
<defs>
<linearGradient id="paint0_linear_61_288" x1="16.0406" y1="1.33337" x2="16.0406" y2="29.3334" gradientUnits="userSpaceOnUse">
<stop stop-color="#FFBB00"/>
<stop offset="1" stop-color="#FF8800"/>
</linearGradient>
</defs>
</svg>
