<svg width="18" height="12" viewBox="0 0 18 12" fill="none" xmlns="http://www.w3.org/2000/svg">
<path d="M10.2002 0.900414C10.5315 0.458638 11.1578 0.368986 11.5996 0.700218L17.5996 5.20022C17.8514 5.38907 18 5.68527 18 6.00002C18 6.31478 17.8514 6.61097 17.5996 6.79983L11.5996 11.2998C11.1578 11.6311 10.5315 11.5414 10.2002 11.0996C9.86896 10.6578 9.95862 10.0316 10.4004 9.70022L14.001 7.00002H1C0.447715 7.00002 0 6.55231 0 6.00002C0 5.44774 0.447715 5.00002 1 5.00002H14.001L10.4004 2.29983C9.95861 1.9685 9.86896 1.34223 10.2002 0.900414Z" fill="#332200"/>
</svg>
