<svg width="32" height="32" viewBox="0 0 32 32" fill="none" xmlns="http://www.w3.org/2000/svg">
<path d="M8.0675 10.7333C6.32187 12.4792 5.339 14.8456 5.334 17.3145C5.32901 19.7834 6.30229 22.1537 8.04083 23.9067C10.0008 19.3733 13.4942 15.5867 17.8542 13.3333C14.0909 16.5176 11.5506 20.9101 10.6675 25.76C14.1342 27.4 18.4008 26.8 21.2675 23.9333C25.2542 19.9467 26.3742 9.08 26.6142 6.09333C26.6225 5.99843 26.61 5.90286 26.5774 5.81332C26.5449 5.72379 26.4931 5.64249 26.4257 5.57512C26.3583 5.50776 26.277 5.45597 26.1875 5.42342C26.098 5.39086 26.0024 5.37831 25.9075 5.38667C22.9208 5.62667 12.0542 6.74667 8.0675 10.7333Z" fill="url(#paint0_linear_61_282)"/>
<defs>
<linearGradient id="paint0_linear_61_282" x1="16.0152" y1="5.38416" x2="16.0152" y2="26.6592" gradientUnits="userSpaceOnUse">
<stop stop-color="#FFBB00"/>
<stop offset="1" stop-color="#FF8800"/>
</linearGradient>
</defs>
</svg>
