<svg width="32" height="32" viewBox="0 0 32 32" fill="none" xmlns="http://www.w3.org/2000/svg">
<g clip-path="url(#clip0_83_169)">
<circle cx="16" cy="16" r="16" fill="white"/>
<path d="M23.5833 13.0909H22.695L20.8533 7.56C20.7009 7.10394 20.4239 6.70986 20.0597 6.43091C19.6955 6.15196 19.2617 6.00156 18.8167 6H17.0833C16.4875 6 16 6.53182 16 7.18182C16 7.83182 16.4875 8.36364 17.0833 8.36364H18.8167L20.3983 13.0909H15.1875L14.7975 11.9091H14.895C15.4908 11.9091 15.9783 11.3773 15.9783 10.7273C15.9783 10.0773 15.4908 9.54545 14.895 9.54545H11.6667C11.0708 9.54545 10.5833 10.0773 10.5833 10.7273C10.5833 11.3773 11.0708 11.9091 11.6667 11.9091H12.4792L14.4508 17.8182H13.725C13.2483 15.1827 11.2225 13.2327 8.6875 13.1027C5.65417 12.9373 3 15.6909 3 19C3 22.3091 5.38333 24.9091 8.41667 24.9091C11.0817 24.9091 13.2375 22.9118 13.725 20.1818H18.275C18.7517 22.8173 20.7775 24.7673 23.3125 24.8973C26.3458 25.0509 29 22.3091 29 18.9882C29 15.6909 26.6167 13.0909 23.5833 13.0909ZM9.5 20.1818H11.4717C11.0167 21.6355 9.73833 22.64 8.2 22.5336C6.58583 22.4273 5.2425 20.9382 5.16667 19.1655C5.09083 17.0973 6.5425 15.4545 8.41667 15.4545C9.8575 15.4545 11.0383 16.4355 11.4717 17.8182H9.5C8.90417 17.8182 8.41667 18.35 8.41667 19C8.41667 19.65 8.90417 20.1818 9.5 20.1818ZM18.275 17.8182H16.7583L15.9675 15.4545H19.25C18.7733 16.14 18.4267 16.9318 18.275 17.8182ZM23.4533 22.5455C21.785 22.4745 20.3767 20.9264 20.3333 19.0945C20.3117 17.96 20.7558 16.9673 21.4708 16.3055L22.1425 18.3145C22.3483 18.9291 22.9658 19.2482 23.5292 19.0236C24.0925 18.7991 24.385 18.1255 24.1792 17.5109L23.4967 15.4664L23.5075 15.4545C23.9418 15.4384 24.3747 15.5184 24.7799 15.6898C25.1851 15.8612 25.5543 16.1204 25.8651 16.4518C26.1759 16.7831 26.422 17.1798 26.5884 17.6177C26.7548 18.0557 26.8381 18.5259 26.8333 19C26.8333 21.0327 25.3383 22.6164 23.4533 22.5455Z" fill="url(#paint0_linear_83_169)"/>
</g>
<defs>
<linearGradient id="paint0_linear_83_169" x1="16.0487" y1="6" x2="16.0487" y2="24.9091" gradientUnits="userSpaceOnUse">
<stop stop-color="#FFB60D"/>
<stop offset="1" stop-color="#E59317"/>
</linearGradient>
<clipPath id="clip0_83_169">
<rect width="32" height="32" fill="white"/>
</clipPath>
</defs>
</svg>
